<?xml version="1.0" encoding="UTF-8"?>
<svg version="1.1" xmlns="http://www.w3.org/2000/svg" width="128" height="128">
<path d="M0 0 C1.19092758 -0.01051392 1.19092758 -0.01051392 2.40591431 -0.02124023 C5.02747689 -0.03882973 7.6479579 -0.02719461 10.26953125 -0.01367188 C12.09269416 -0.01636653 13.91585568 -0.02024872 15.73901367 -0.02526855 C19.55889578 -0.03116488 23.3784036 -0.02259641 27.19824219 -0.00390625 C32.09457694 0.01888349 36.9900347 0.00576111 41.88633728 -0.01819611 C45.65074267 -0.03265052 49.41494015 -0.02804976 53.17935181 -0.01768494 C54.98467106 -0.01501666 56.79000919 -0.01829097 58.5953064 -0.02760315 C61.11873367 -0.03776305 63.64074099 -0.02227675 66.1640625 0 C67.28320541 -0.01214539 67.28320541 -0.01214539 68.42495728 -0.02453613 C71.86515656 0.03172634 73.75748798 0.27454857 76.5456543 2.36242676 C78.64444964 5.30651001 78.67190849 6.97831468 78.08203125 10.51757812 C76.5456543 12.67272949 76.5456543 12.67272949 74.08203125 14.51757812 C71.30987326 14.91231324 68.93458074 15.06522302 66.1640625 15.03515625 C64.97313492 15.04567017 64.97313492 15.04567017 63.75814819 15.05639648 C61.13658561 15.07398598 58.5161046 15.06235086 55.89453125 15.04882812 C54.07136834 15.05152278 52.24820682 15.05540497 50.42504883 15.0604248 C46.60516672 15.06632113 42.7856589 15.05775266 38.96582031 15.0390625 C34.06948556 15.01627276 29.1740278 15.02939514 24.27772522 15.05335236 C20.51331983 15.06780677 16.74912235 15.06320601 12.98471069 15.05284119 C11.17939144 15.05017291 9.37405331 15.05344722 7.5687561 15.0627594 C5.04532883 15.0729193 2.52332151 15.057433 0 15.03515625 C-1.11914291 15.04730164 -1.11914291 15.04730164 -2.26089478 15.05969238 C-5.70109406 15.00342991 -7.59342548 14.76060768 -10.3815918 12.67272949 C-12.48038714 9.72864624 -12.50784599 8.05684157 -11.91796875 4.51757812 C-8.67384345 -0.03311567 -5.21359726 -0.05658004 0 0 Z " fill="#000000" transform="translate(30.91796875,56.482421875)"/>
<path d="M0 0 C1.19092758 -0.01051392 1.19092758 -0.01051392 2.40591431 -0.02124023 C5.02747689 -0.03882973 7.6479579 -0.02719461 10.26953125 -0.01367188 C12.09269416 -0.01636653 13.91585568 -0.02024872 15.73901367 -0.02526855 C19.55889578 -0.03116488 23.3784036 -0.02259641 27.19824219 -0.00390625 C32.09457694 0.01888349 36.9900347 0.00576111 41.88633728 -0.01819611 C45.65074267 -0.03265052 49.41494015 -0.02804976 53.17935181 -0.01768494 C54.98467106 -0.01501666 56.79000919 -0.01829097 58.5953064 -0.02760315 C61.11873367 -0.03776305 63.64074099 -0.02227675 66.1640625 0 C67.28320541 -0.01214539 67.28320541 -0.01214539 68.42495728 -0.02453613 C71.86515656 0.03172634 73.75748798 0.27454857 76.5456543 2.36242676 C78.64444964 5.30651001 78.67190849 6.97831468 78.08203125 10.51757812 C76.5456543 12.67272949 76.5456543 12.67272949 74.08203125 14.51757812 C71.30987326 14.91231324 68.93458074 15.06522302 66.1640625 15.03515625 C64.97313492 15.04567017 64.97313492 15.04567017 63.75814819 15.05639648 C61.13658561 15.07398598 58.5161046 15.06235086 55.89453125 15.04882812 C54.07136834 15.05152278 52.24820682 15.05540497 50.42504883 15.0604248 C46.60516672 15.06632113 42.7856589 15.05775266 38.96582031 15.0390625 C34.06948556 15.01627276 29.1740278 15.02939514 24.27772522 15.05335236 C20.51331983 15.06780677 16.74912235 15.06320601 12.98471069 15.05284119 C11.17939144 15.05017291 9.37405331 15.05344722 7.5687561 15.0627594 C5.04532883 15.0729193 2.52332151 15.057433 0 15.03515625 C-1.11914291 15.04730164 -1.11914291 15.04730164 -2.26089478 15.05969238 C-5.70109406 15.00342991 -7.59342548 14.76060768 -10.3815918 12.67272949 C-12.48038714 9.72864624 -12.50784599 8.05684157 -11.91796875 4.51757812 C-8.67384345 -0.03311567 -5.21359726 -0.05658004 0 0 Z " fill="#000000" transform="translate(30.91796875,24.482421875)"/>
<path d="M0 0 C0.96147949 -0.0038269 1.92295898 -0.00765381 2.91357422 -0.01159668 C4.9443466 -0.01431602 6.97515399 -0.00695329 9.00585938 0.00976562 C12.1140757 0.03117475 15.21998056 0.00996454 18.328125 -0.015625 C20.30208843 -0.01298173 22.27605043 -0.00785676 24.25 0 C25.17925293 -0.00809692 26.10850586 -0.01619385 27.06591797 -0.02453613 C33.47683056 0.06862151 33.47683056 0.06862151 36.7109375 2.37695312 C38.65362868 5.33660558 38.7036537 7.05932782 38.125 10.53125 C36.7109375 12.68554688 36.7109375 12.68554688 34.125 14.53125 C30.83610816 15.1342135 27.58606277 15.09156835 24.25 15.0625 C23.28852051 15.0663269 22.32704102 15.07015381 21.33642578 15.07409668 C19.3056534 15.07681602 17.27484601 15.06945329 15.24414062 15.05273438 C12.1359243 15.03132525 9.03001944 15.05253546 5.921875 15.078125 C3.94791157 15.07548173 1.97394957 15.07035676 0 15.0625 C-0.92925293 15.07059692 -1.85850586 15.07869385 -2.81591797 15.08703613 C-9.22683056 14.99387849 -9.22683056 14.99387849 -12.4609375 12.68554688 C-14.40362868 9.72589442 -14.4536537 8.00317218 -13.875 4.53125 C-10.4110279 -0.74604451 -5.72125312 -0.04985139 0 0 Z " fill="#000000" transform="translate(70.875,88.46875)"/>
</svg>
